<svg height="300" width="300" fill="#FFF" xmlns="http://www.w3.org/2000/svg" viewBox="0 0 100 100"><path d="M56.6 79.6L50 86.2l-6.6-6.6c-.8-.8-2-.8-2.8 0s-.8 2 0 2.8l8 8c.4.4.9.6 1.4.6s1-.2 1.4-.6l8-8c.8-.8.8-2 0-2.8s-2-.8-2.8 0z"/><path d="M59.4 68.6c-.8-.8-2-.8-2.8 0L50 75.2l-6.6-6.6c-.8-.8-2-.8-2.8 0s-.8 2 0 2.8l8 8c.4.4.9.6 1.4.6s1-.2 1.4-.6l8-8c.8-.8.8-2 0-2.8zM68 45V27c0-9.9-8.1-18-18-18s-18 8.1-18 18v18c0 9.9 8.1 18 18 18s18-8.1 18-18zM50 59c-7.7 0-14-6.3-14-14V27c0-7.7 6.3-14 14-14s14 6.3 14 14v18c0 7.7-6.3 14-14 14z"/><path d="M50 20c-1.1 0-2 .9-2 2v6c0 1.1.9 2 2 2s2-.9 2-2v-6c0-1.1-.9-2-2-2z"/></svg>