<?xml version="1.0" encoding="utf-8"?>
<!-- Generator: Adobe Illustrator 26.0.3, SVG Export Plug-In . SVG Version: 6.00 Build 0)  -->
<svg version="1.0" id="katman_1" xmlns="http://www.w3.org/2000/svg" xmlns:xlink="http://www.w3.org/1999/xlink" x="0px" y="0px"
	 viewBox="0 0 800 600" style="enable-background:new 0 0 800 600;" xml:space="preserve">
<style type="text/css">
	.st0{fill:#1B1A14;}
</style>
<g>
	<g>
		<path class="st0" d="M399.8,164.7c1.4,0,2.8,0.6,3.8,1.6c1,1,1.6,2.4,1.6,3.8v21.6c0,1.4-0.6,2.8-1.6,3.8c-1,1-2.4,1.6-3.8,1.6
			c-1.4,0-2.8-0.6-3.8-1.6c-1-1-1.6-2.4-1.6-3.8v-21.6c0-1.4,0.6-2.8,1.6-3.8C397,165.2,398.4,164.7,399.8,164.7L399.8,164.7z
			 M443,251c0,11.5-4.6,22.4-12.7,30.5c-8.1,8.1-19.1,12.7-30.5,12.7s-22.4-4.6-30.5-12.7c-8.1-8.1-12.7-19.1-12.7-30.5v-64.8
			c0-11.5,4.6-22.4,12.7-30.5c8.1-8.1,19.1-12.7,30.5-12.7s22.4,4.6,30.5,12.7c8.1,8.1,12.7,19.1,12.7,30.5V251z M399.8,132.3
			c-14.3,0-28.1,5.7-38.2,15.8c-10.1,10.1-15.8,23.9-15.8,38.2V251c0,14.3,5.7,28.1,15.8,38.2c10.1,10.1,23.9,15.8,38.2,15.8
			c14.3,0,28.1-5.7,38.2-15.8s15.8-23.9,15.8-38.2v-64.8c0-14.3-5.7-28.1-15.8-38.2C427.9,137.9,414.1,132.3,399.8,132.3
			L399.8,132.3z"/>
	</g>
</g>
<path class="st0" d="M151.4,466.7c-4.6,0-8.8-0.8-12.5-2.4c-3.6-1.7-6.5-4-8.6-6.9c-2.1-3-3.2-6.3-3.2-10.2h9.8
	c0.3,3.3,1.7,6.1,4,8.4c2.4,2.2,5.9,3.3,10.5,3.3c4.4,0,7.8-1.1,10.3-3.2c2.6-2.2,3.8-5,3.8-8.5c0-2.7-0.7-4.9-2.2-6.6
	c-1.5-1.7-3.3-3-5.5-3.8c-2.2-0.9-5.2-1.8-9-2.8c-4.6-1.2-8.4-2.4-11.2-3.6c-2.8-1.2-5.1-3.1-7.2-5.6c-1.9-2.6-2.9-6.1-2.9-10.5
	c0-3.8,1-7.2,2.9-10.2c1.9-3,4.7-5.2,8.2-6.9c3.6-1.6,7.6-2.4,12.2-2.4c6.6,0,12,1.6,16.1,4.9c4.2,3.3,6.6,7.7,7.2,13.1H164
	c-0.3-2.7-1.7-5-4.2-7.1c-2.5-2.1-5.8-3.1-9.9-3.1c-3.8,0-7,1-9.4,3c-2.4,1.9-3.6,4.7-3.6,8.3c0,2.6,0.7,4.6,2.1,6.2
	c1.5,1.6,3.3,2.9,5.3,3.7c2.2,0.8,5.1,1.7,9,2.8c4.6,1.3,8.4,2.6,11.2,3.8c2.8,1.2,5.2,3.1,7.3,5.7c2,2.6,3,6,3,10.5
	c0,3.4-0.9,6.7-2.7,9.7c-1.8,3-4.5,5.5-8.1,7.4C160.4,465.8,156.2,466.7,151.4,466.7z"/>
<path class="st0" d="M182.8,438.3c0-5.7,1.1-10.7,3.4-14.9c2.3-4.3,5.4-7.6,9.5-10c4.1-2.4,8.8-3.5,14-3.5c6.8,0,12.4,1.6,16.7,4.9
	c4.4,3.3,7.4,7.9,8.8,13.7h-9.9c-0.9-3.4-2.8-6-5.5-8c-2.7-1.9-6-2.9-10.1-2.9c-5.2,0-9.5,1.8-12.7,5.4c-3.2,3.6-4.8,8.6-4.8,15.2
	c0,6.7,1.6,11.8,4.8,15.4c3.2,3.6,7.5,5.4,12.7,5.4c4,0,7.4-0.9,10.1-2.8c2.7-1.9,4.5-4.6,5.5-8.1h9.9c-1.5,5.6-4.4,10.2-8.9,13.6
	c-4.4,3.4-10,5-16.6,5c-5.2,0-9.9-1.2-14-3.5c-4-2.4-7.2-5.7-9.5-10C183.9,449.1,182.8,444.1,182.8,438.3z"/>
<path class="st0" d="M254.6,419.7c1.6-3.2,3.9-5.6,6.9-7.4c3-1.7,6.7-2.6,11-2.6v9.5H270c-10.3,0-15.4,5.6-15.4,16.7v30h-9.2v-55.2
	h9.2V419.7z"/>
<path class="st0" d="M305.1,466.9c-5.2,0-9.9-1.2-14.1-3.5c-4.2-2.4-7.5-5.7-9.9-10c-2.4-4.4-3.5-9.4-3.5-15.1
	c0-5.6,1.2-10.6,3.6-14.9c2.5-4.4,5.8-7.7,10.1-10c4.2-2.4,9-3.5,14.2-3.5s10,1.2,14.2,3.5c4.2,2.3,7.6,5.6,10,9.9
	c2.5,4.3,3.7,9.3,3.7,15c0,5.7-1.3,10.8-3.8,15.1c-2.5,4.3-5.9,7.6-10.2,10C315.1,465.7,310.3,466.9,305.1,466.9z M305.1,458.9
	c3.3,0,6.4-0.8,9.3-2.3c2.9-1.5,5.2-3.9,7-7c1.8-3.1,2.7-6.9,2.7-11.3s-0.9-8.2-2.6-11.3c-1.7-3.1-4-5.4-6.9-6.9
	c-2.8-1.5-5.9-2.3-9.2-2.3c-3.4,0-6.5,0.8-9.3,2.3c-2.8,1.5-5,3.8-6.7,6.9c-1.7,3.1-2.5,6.9-2.5,11.3c0,4.5,0.8,8.3,2.4,11.4
	c1.7,3.1,3.9,5.4,6.7,7C298.8,458.1,301.8,458.9,305.1,458.9z"/>
<path class="st0" d="M352.6,391.4V466h-9.2v-74.6H352.6z"/>
<path class="st0" d="M375.4,391.4V466h-9.2v-74.6H375.4z"/>
<path class="st0" d="M410.5,438.2c0-5.6,1.1-10.6,3.4-14.8c2.3-4.3,5.4-7.6,9.4-10c4-2.4,8.5-3.5,13.5-3.5c4.3,0,8.3,1,12,3
	c3.7,1.9,6.5,4.5,8.5,7.8v-29.2h9.3V466h-9.3v-10.4c-1.8,3.3-4.5,6-8.1,8.2c-3.6,2.1-7.7,3.1-12.5,3.1c-4.9,0-9.4-1.2-13.4-3.6
	c-4-2.4-7.1-5.8-9.4-10.2C411.6,448.7,410.5,443.8,410.5,438.2z M457.2,438.3c0-4.2-0.8-7.8-2.5-10.9c-1.7-3.1-4-5.4-6.9-7.1
	c-2.8-1.7-5.9-2.5-9.4-2.5c-3.4,0-6.6,0.8-9.4,2.4c-2.8,1.6-5.1,4-6.8,7.1c-1.7,3.1-2.5,6.7-2.5,10.9c0,4.2,0.8,7.9,2.5,11.1
	c1.7,3.1,3.9,5.5,6.8,7.2c2.8,1.6,5.9,2.4,9.4,2.4c3.4,0,6.6-0.8,9.4-2.4c2.9-1.7,5.2-4.1,6.9-7.2
	C456.4,446.1,457.2,442.5,457.2,438.3z"/>
<path class="st0" d="M504.1,466.9c-5.2,0-9.9-1.2-14.1-3.5c-4.2-2.4-7.5-5.7-9.9-10c-2.4-4.4-3.5-9.4-3.5-15.1
	c0-5.6,1.2-10.6,3.6-14.9c2.5-4.4,5.8-7.7,10.1-10c4.2-2.4,9-3.5,14.2-3.5s10,1.2,14.2,3.5c4.2,2.3,7.6,5.6,10,9.9
	c2.5,4.3,3.7,9.3,3.7,15c0,5.7-1.3,10.8-3.8,15.1c-2.5,4.3-5.9,7.6-10.2,10C514.1,465.7,509.3,466.9,504.1,466.9z M504.1,458.9
	c3.3,0,6.4-0.8,9.3-2.3c2.9-1.5,5.2-3.9,7-7c1.8-3.1,2.7-6.9,2.7-11.3s-0.9-8.2-2.6-11.3c-1.7-3.1-4-5.4-6.9-6.9
	c-2.8-1.5-5.9-2.3-9.2-2.3c-3.4,0-6.5,0.8-9.3,2.3c-2.8,1.5-5,3.8-6.7,6.9c-1.7,3.1-2.5,6.9-2.5,11.3c0,4.5,0.8,8.3,2.4,11.4
	c1.7,3.1,3.9,5.4,6.7,7C497.8,458.1,500.8,458.9,504.1,458.9z"/>
<path class="st0" d="M616,410.8L598.8,466h-9.5L576,422.2L562.7,466h-9.5l-17.3-55.2h9.4l12.7,46.4l13.7-46.4h9.4l13.4,46.5
	l12.5-46.5H616z"/>
<path class="st0" d="M650,409.8c6.7,0,12.2,2,16.3,6.1c4.2,4,6.2,9.9,6.2,17.5V466h-9.1v-31.2c0-5.5-1.4-9.7-4.1-12.6
	c-2.8-3-6.5-4.4-11.3-4.4c-4.8,0-8.7,1.5-11.6,4.5c-2.8,3-4.2,7.4-4.2,13.2V466h-9.2v-55.2h9.2v7.9c1.8-2.8,4.3-5,7.4-6.6
	C642.8,410.5,646.2,409.8,650,409.8z"/>
</svg>
